<?xml version="1.0" standalone="no"?>
<!DOCTYPE svg PUBLIC "-//W3C//DTD SVG 20010904//EN"
 "http://www.w3.org/TR/2001/REC-SVG-20010904/DTD/svg10.dtd">
<svg version="1.0" xmlns="http://www.w3.org/2000/svg"
 width="696.000000pt" height="696.000000pt" viewBox="0 0 696.000000 696.000000"
 preserveAspectRatio="xMidYMid meet">
<metadata>
Created by potrace 1.14, written by Peter Selinger 2001-2017
</metadata>
<g transform="translate(0.000000,696.000000) scale(0.100000,-0.100000)"
fill="#000000" stroke="none">
<path d="M2638 5813 c-461 -461 -838 -841 -838 -846 0 -8 1676 -1687 1684
-1687 6 0 1686 1682 1686 1689 0 10 -1677 1681 -1686 1681 -5 0 -386 -377
-846 -837z"/>
<path d="M5252 4865 c-15 -15 -1276 -1274 -1492 -1490 l-190 -190 840 -840
c462 -462 844 -841 849 -843 7 -2 1691 1673 1691 1683 0 2 -380 383 -844 847
-564 564 -847 840 -854 833z"/>
<path d="M861 4019 c-462 -462 -841 -843 -841 -846 0 -13 1680 -1685 1690
-1681 15 5 1680 1671 1680 1681 0 9 -1674 1687 -1683 1687 -2 0 -383 -378
-846 -841z"/>
<path d="M2082 1684 l-1382 -1384 2780 0 c1529 0 2780 2 2780 5 0 3 -340 344
-756 758 -415 413 -1039 1034 -1385 1380 -347 345 -636 626 -642 626 -7 -1
-634 -624 -1395 -1385z"/>
</g>
</svg>
