<?xml version="1.0" encoding="UTF-8"?>
<svg id="Ebene_1" data-name="Ebene 1" xmlns="http://www.w3.org/2000/svg" width="60" height="60" viewBox="0 0 60 60">
  <path d="m29.1,0c0,0-.4,0-.6,0-2.2.2-4.5,1.2-6.3,2.7-.5.4-1.6,1.5-2,2-1.9,2.4-3,5.5-3,8.6s1.3,6.9,4.5,11.8c.3.4.5.7.4.7s-.1,0-.2-.1c0,0-.4-.3-.7-.5-2.2-1.4-4.2-2.2-6.5-2.6-.8-.1-2.6-.2-3.3,0-2.3.3-4.2,1.1-5.9,2.4-3.4,2.6-5.4,6.6-5.4,11s2,8.5,5.4,11c1.8,1.3,3.6,2.1,5.9,2.4.7,0,2.3,0,3.1,0,2.5-.4,4.9-1.4,7.8-3.4,1-.6,1.8-1.2,3.6-2.6.9-.7,1.7-1.3,1.7-1.3h.1c0,0,0,0,0,0,0,.2-.2,1.9-.3,2.7-.6,5.8-1.9,9.1-4.3,11.4-1.7,1.7-3.8,2.7-7.1,3.6-.2,0,1.5,0,14,0s14.2,0,14,0c-3.3-.9-5.4-1.9-7.1-3.6-2.2-2.2-3.4-5.1-4.1-10-.2-1.4-.5-4.1-.4-4.3,0,0,.1,0,.5.4,1.5,1.3,3,2.4,4.3,3.3,3,2,5.7,3.1,8.7,3.6,2.9.5,6.1-.4,8.7-2.3,3.4-2.6,5.4-6.6,5.4-11s-2-8.5-5.4-11c-3.1-2.3-6.9-3-10.5-2-1.6.5-3.3,1.2-5.4,2.5-.4.2-.7.4-.7.4s.1-.2.3-.5c1.2-1.5,2.3-3.6,3-5.2,1.1-2.7,1.7-5.7,1.5-7.8-.2-2.8-1.3-5.4-3-7.5-.4-.5-1.5-1.6-2-2-1.8-1.4-3.9-2.3-6.2-2.7-.4,0-2.2-.1-2.6,0Z"/>
</svg>