<?xml version="1.0" encoding="UTF-8"?>
<svg id="Ebene_1" data-name="Ebene 1" xmlns="http://www.w3.org/2000/svg" width="59.7" height="70" viewBox="0 0 59.7 70">
  <path d="m58.4,56.9h-1.6v1.6h1.6v-1.6Zm-2.9,12.7h4.2v-1l-1.3-.3v-7.6h-2.9v1l1.3.3v6.3l-1.3.3v1h0Zm-5-11v2.1h-1.4v1.2h1.4v5.3c0,.8.2,1.4.6,1.9s.9.6,1.5.6.6,0,.8,0c.3,0,.5-.2.7-.3l-.3-1.1h-.9c-.3,0-.5,0-.7-.3-.2-.2-.3-.4-.3-.8v-5.3h1.7v-1.2h-1.7v-2.1h-1.6,0Zm-6.1,0v2.1h-1.4v1.2h1.4v5.3c0,.8.2,1.4.6,1.9s.9.6,1.5.6.6,0,.8,0c.3,0,.5-.2.7-.3l-.3-1.1h-.9c-.3,0-.5,0-.7-.3-.2-.2-.3-.4-.3-.8v-5.3h1.7v-1.2h-1.7v-2.1h-1.6,0Zm-4.6,4c.3.4.5.9.5,1.6v.3h-4c0-.8.3-1.3.7-1.8.4-.4.8-.7,1.3-.7s1.2.3,1.5.7m.6,6.9c.5-.2.9-.5,1.3-.8l-.6-1c-.3.3-.7.5-1.1.7-.4.2-.9.3-1.4.3s-1.3-.3-1.8-.8c-.4-.5-.6-1.3-.7-2.1h5.7v-1c0-1.2-.3-2.1-.9-2.9-.6-.8-1.5-1.1-2.7-1.1s-1.9.4-2.6,1.3c-.8.8-1.1,1.9-1.1,3.1v.3c0,1.3.3,2.4,1.1,3.2.8.8,1.7,1.3,2.9,1.3s1.3,0,1.9-.3m-10.3-7.5v6.3l-1.3.3v1h4.2v-1l-1.3-.3v-6.3h1.9v-1.2h-1.9v-1.1c0-.5,0-.9.3-1.2.3-.3.6-.4,1-.4h.8l.2-1.2c-.3,0-.4,0-.6,0h-.6c-.8,0-1.6.3-2,.8-.5.5-.8,1.3-.8,2.2v1.1h-1.3v1.2h1.5Zm-12.4,7.5h4.2v-1l-1.3-.3v-5.1c.3-.4.5-.7.8-.9.3-.3.8-.3,1.3-.3s1.1.2,1.4.5c.3.3.4.8.4,1.7v4.3l-1.3.3v1h4.2v-1l-1.3-.3v-4.3c0-1.2-.3-2-.8-2.6s-1.3-.8-2.2-.8-1.1.2-1.5.4-.8.6-1.1,1.1v-1.3h-2.9v1l1.3.3v6.3l-1.3.3v1h0Zm-7.2-4.6c0-.9.2-1.7.6-2.3s1-.9,1.8-.9,1.3.3,1.8.9.6,1.3.6,2.3v.2c0,.9-.2,1.7-.6,2.3s-1,.9-1.8.9-1.3-.3-1.8-.9-.6-1.3-.6-2.3c0,0,0-.2,0-.2Zm-1.6.2c0,1.3.3,2.4,1.1,3.2.7.8,1.7,1.3,2.9,1.3s2.2-.4,2.9-1.3,1.1-1.9,1.1-3.2v-.2c0-1.3-.3-2.4-1.1-3.2-.7-.8-1.7-1.3-2.9-1.3s-2.2.4-2.9,1.3c-.7.8-1.1,1.9-1.1,3.2,0,0,0,.2,0,.2Zm-6.7,2.4c-.3-.6-.5-1.3-.5-2.3v-.3c0-.8.2-1.6.5-2.2.3-.6.9-.9,1.8-.9s.7,0,1,.2c.3,0,.5.3.8.4l.3,1.3h1.3v-1.9c-.4-.4-.9-.8-1.4-.9-.6-.3-1.2-.3-1.9-.3-1.3,0-2.3.4-2.9,1.3s-1,1.9-1,3.1v.3c0,1.3.3,2.3,1,3.1.7.8,1.7,1.3,2.9,1.3s1.8-.3,2.4-.8c.7-.6,1-1.3,1-2h-1.4c0,.5-.2.8-.6,1.2s-.8.5-1.4.5c-.8,0-1.4-.3-1.8-.9" fill="#151515"/>
  <rect x="21" y="4" width="19.3" height="19.3" transform="translate(-.7 25.6) rotate(-45)" fill="#151515"/>
  <rect x="6.6" y="18.4" width="19.3" height="19.3" transform="translate(-15 19.7) rotate(-45)" fill="#151515"/>
  <rect x="35.3" y="18.3" width="19.3" height="19.3" transform="translate(-6.6 40) rotate(-45)" fill="#151515"/>
  <polygon points="8.3 51.2 30.7 28.8 53.1 51.2 8.3 51.2" fill="#cc1236"/>
</svg>